<svg width="512" height="512" viewBox="0 0 512 512" xmlns="http://www.w3.org/2000/svg">
  <defs>
    <linearGradient id="bg" x1="0" y1="0" x2="1" y2="1">
      <stop offset="0" stop-color="#C9879A"/>
      <stop offset="1" stop-color="#B06A86"/>
    </linearGradient>
  </defs>
  <rect width="512" height="512" rx="112" fill="url(#bg)"/>
  <!-- journal page -->
  <rect x="146" y="120" width="220" height="272" rx="26" fill="#FFFFFF"/>
  <!-- binding line -->
  <rect x="186" y="120" width="6" height="272" fill="#F0DDE4"/>
  <!-- text lines -->
  <rect x="214" y="170" width="118" height="14" rx="7" fill="#E7CDD6"/>
  <rect x="214" y="206" width="92" height="14" rx="7" fill="#EFDCE3"/>
  <!-- heart -->
  <path d="M256 332c-46-30-74-56-74-92 0-25 19-42 41-42 17 0 28 10 33 19 5-9 16-19 33-19 22 0 41 17 41 42 0 36-28 62-74 92z" fill="#C9879A"/>
</svg>
